<svg xmlns="http://www.w3.org/2000/svg" viewBox="0 0 756 894" role="img" aria-labelledby="title desc">
<title>SP Stiletto Logo</title>
<desc>Black SP monogram high heel logo with transparent background.</desc>
<path fill="#000000" fill-rule="evenodd" d="
M 413 33 L 354 20 L 283 33 L 233 72 L 210 131 L 214 181 L 237 227 L 404 395 L 443 468 L 440 528 L 351 749 L 307 827 L 257 856 L 294 827 L 324 775 L 418 535 L 430 470 L 338 708 L 283 792 L 206 816 L 160 787 L 36 852 L 25 870 L 232 872 L 299 852 L 334 811 L 425 622 L 473 554 L 488 871 L 507 871 L 518 282 L 587 283 L 631 299 L 666 337 L 680 384 L 674 444 L 654 482 L 608 515 L 539 522 L 539 535 L 656 519 L 723 456 L 731 362 L 678 293 L 596 270 L 429 269 L 467 309 L 471 407 L 281 199 L 259 155 L 258 107 L 277 67 L 313 41 L 362 35 L 406 47 L 443 77 L 466 121 L 453 63 Z
"></path>
</svg>